<svg id="visual" viewBox="0 0 900 600" width="900" height="600" xmlns="http://www.w3.org/2000/svg" xmlns:xlink="http://www.w3.org/1999/xlink" version="1.1"><rect width="900" height="600" fill="#d3eafd"></rect><g><g transform="translate(441 119)"><path d="M92 -30.6C104.6 9 90.2 56.7 58.8 79.1C27.3 101.5 -21.2 98.7 -55.7 74.2C-90.2 49.7 -110.7 3.6 -99.1 -34.7C-87.5 -72.9 -43.7 -103.2 -2 -102.6C39.7 -101.9 79.3 -70.3 92 -30.6Z" fill="#bddffb"></path></g><g transform="translate(824 593)"><path d="M49.5 -16.9C56.3 5 48.7 30.8 31 44.1C13.2 57.3 -14.8 58.1 -33 45C-51.2 31.8 -59.6 4.9 -52.5 -17.4C-45.3 -39.7 -22.7 -57.2 -0.7 -57C21.3 -56.8 42.6 -38.8 49.5 -16.9Z" fill="#bddffb"></path></g><g transform="translate(41 535)"><path d="M66.5 -24.2C74.1 1.6 59.7 32 37.6 46.9C15.4 61.8 -14.4 61.3 -34 47C-53.7 32.7 -63.2 4.5 -55.9 -21C-48.5 -46.5 -24.3 -69.4 2.6 -70.3C29.5 -71.1 59 -49.9 66.5 -24.2Z" fill="#bddffb"></path></g></g></svg>