<svg id="visual" viewBox="0 0 900 600" width="900" height="600" xmlns="http://www.w3.org/2000/svg" xmlns:xlink="http://www.w3.org/1999/xlink" version="1.1"><rect width="900" height="600" fill="#eafff6"></rect><g><g transform="translate(876 452)"><path d="M99 -33C111.1 4.9 91.7 52.3 55.7 79C19.7 105.7 -33 111.8 -66 88.4C-99.1 65 -112.5 12 -98.2 -29C-83.9 -70 -42 -99.1 0.8 -99.3C43.5 -99.5 87 -71 99 -33Z" fill="#cbf9dc"></path></g><g transform="translate(765 131)"><path d="M62.4 -20.3C70.2 3.8 58.6 34.2 37.7 48.7C16.8 63.1 -13.4 61.6 -33.8 46.7C-54.1 31.9 -64.5 3.8 -57.3 -19.6C-50 -43 -25 -61.6 1.1 -61.9C27.3 -62.3 54.6 -44.4 62.4 -20.3Z" fill="#cbf9dc"></path></g><g transform="translate(204 582)"><path d="M82 -29.7C92.7 6.3 78.4 47.3 47.8 70.8C17.2 94.2 -29.9 100 -59.4 79.2C-88.9 58.3 -100.9 10.8 -88.1 -28C-75.3 -66.9 -37.6 -97.2 -1 -96.9C35.6 -96.5 71.3 -65.6 82 -29.7Z" fill="#cbf9dc"></path></g></g></svg>