<svg id="visual" viewBox="0 0 900 600" width="900" height="600" xmlns="http://www.w3.org/2000/svg" xmlns:xlink="http://www.w3.org/1999/xlink" version="1.1"><rect width="900" height="600" fill="#e8ffea"></rect><g><g transform="translate(527 98)"><path d="M88.9 -26C102.8 14 93.2 64.6 61 89.2C28.8 113.8 -26 112.5 -61.3 86.4C-96.7 60.2 -112.6 9.3 -99.1 -30.1C-85.6 -69.5 -42.8 -97.2 -2.7 -96.3C37.5 -95.5 74.9 -66 88.9 -26Z" fill="#cdffbb"></path></g><g transform="translate(144 506)"><path d="M67.9 -22.6C77.7 7.9 68 44.1 43.4 62.7C18.8 81.2 -20.7 82.1 -46.5 63.4C-72.3 44.8 -84.4 6.7 -74.4 -24.2C-64.4 -55.1 -32.2 -78.8 -1.5 -78.3C29.1 -77.8 58.2 -53.1 67.9 -22.6Z" fill="#cdffbb"></path></g><g transform="translate(751 324)"><path d="M70.4 -21.8C80.8 9.2 71.7 47.6 47 65.8C22.4 83.9 -17.7 81.8 -45.4 61.9C-73 41.9 -88 4.2 -78.4 -25.7C-68.8 -55.6 -34.4 -77.7 -2.2 -77C30 -76.3 60 -52.8 70.4 -21.8Z" fill="#cdffbb"></path></g></g></svg>