<svg id="visual" viewBox="0 0 900 600" width="900" height="600" xmlns="http://www.w3.org/2000/svg" xmlns:xlink="http://www.w3.org/1999/xlink" version="1.1"><rect width="900" height="600" fill="#ece9fd"></rect><g><g transform="translate(736 82)"><path d="M101 -34.2C114.6 9 98.1 60.6 63.7 84.9C29.4 109.2 -22.8 106.2 -59.7 79.9C-96.6 53.6 -118.2 4.1 -105.7 -37.5C-93.2 -79.2 -46.6 -113 -1.4 -112.5C43.7 -112 87.4 -77.3 101 -34.2Z" fill="#d8d2fd"></path></g><g transform="translate(581 480)"><path d="M66.9 -23.3C75.7 5.3 64.2 38.9 39.1 58.1C14.1 77.4 -24.5 82.2 -49 65C-73.4 47.8 -83.6 8.7 -73.1 -22.4C-62.5 -53.4 -31.3 -76.3 -1.1 -76C29.1 -75.6 58.1 -52 66.9 -23.3Z" fill="#d8d2fd"></path></g><g transform="translate(311 363)"><path d="M69.6 -19.5C79.3 7.4 68.9 43.9 45.7 60.1C22.6 76.2 -13.3 71.9 -37.7 53.8C-62 35.6 -74.9 3.5 -66.7 -21.2C-58.5 -46 -29.3 -63.4 0.3 -63.5C29.9 -63.6 59.8 -46.4 69.6 -19.5Z" fill="#d8d2fd"></path></g></g></svg>