<svg id="visual" viewBox="0 0 900 600" width="900" height="600" xmlns="http://www.w3.org/2000/svg" xmlns:xlink="http://www.w3.org/1999/xlink" version="1.1"><rect width="900" height="600" fill="#fff9f0"></rect><g><g transform="translate(485 147)"><path d="M95.2 -27.1C108.6 10.3 94.5 60.5 61.8 84.1C29.1 107.6 -22.3 104.5 -58.1 78.7C-94 53 -114.4 4.6 -102.1 -31.2C-89.8 -67.1 -44.9 -90.3 -2 -89.7C40.9 -89 81.8 -64.5 95.2 -27.1Z" fill="#fef0da"></path></g><g transform="translate(227 429)"><path d="M53 -17.7C61.6 9.1 56.4 39.8 37.1 54.7C17.8 69.6 -15.7 68.7 -38.1 52.5C-60.5 36.2 -71.7 4.6 -63.5 -21.7C-55.3 -48.1 -27.7 -69.2 -2.7 -68.4C22.2 -67.5 44.5 -44.6 53 -17.7Z" fill="#fef0da"></path></g><g transform="translate(856 241)"><path d="M66.2 -21.4C75.6 7.2 65.7 42.1 41.1 61.1C16.4 80.1 -23.1 83.2 -48.1 65.3C-73.1 47.3 -83.5 8.4 -73 -21.7C-62.6 -51.8 -31.3 -73.1 -1.4 -72.7C28.5 -72.2 56.9 -50 66.2 -21.4Z" fill="#fef0da"></path></g></g></svg>